name rise35.5848peak51.9257fall54.8793.mot
datacolumns 19
datarows 23
range 14.16327100000000 14.19993700000000
endheader
time	ground_force1_vx	ground_force1_vy	ground_force1_vz	ground_force1_px	ground_force1_py	ground_force1_pz	ground_force2_vx	ground_force2_vy	ground_force2_vz	ground_force2_px	ground_force2_py	ground_force2_pz	ground_torque1_x	ground_torque1_y	ground_torque1_z	ground_torque2_x	ground_torque2_y	ground_torque2_z	
14.16327100000000	-4.21903100000000	41.62831400000000	-9.50340600000000	0.26983200000000	0.00000000000000	0.11679200000000	-50.48101300000000	810.50599399999999	-52.35189600000000	0.09606700000000	0.00000000000000	-0.07221000000000	0.00000000000000	-5.08497500000000	0.00000000000000	0.00000000000000	-16.53359900000000	0.00000000000000	
14.16494400000000	-4.61138000000000	48.82713000000000	-10.68998600000000	0.27535800000000	0.00000000000000	0.11769500000000	-51.32247700000000	808.27685499999995	-52.06604300000000	0.09521100000000	0.00000000000000	-0.07209600000000	0.00000000000000	-5.80209600000000	0.00000000000000	0.00000000000000	-16.49965900000000	0.00000000000000	
14.16660600000000	-4.91632600000000	56.12524100000000	-11.76871200000000	0.28026800000000	0.00000000000000	0.11851800000000	-52.17324800000000	805.88066300000003	-51.75878500000000	0.09435500000000	0.00000000000000	-0.07198000000000	0.00000000000000	-6.47456300000000	0.00000000000000	0.00000000000000	-16.46634400000000	0.00000000000000	
14.16827900000000	-5.12093100000000	63.42908000000000	-12.71414400000000	0.28466400000000	0.00000000000000	0.11927200000000	-53.03240800000000	803.31401900000003	-51.42993700000000	0.09350000000000	0.00000000000000	-0.07186000000000	0.00000000000000	-7.08689000000000	0.00000000000000	0.00000000000000	-16.43359700000000	0.00000000000000	
14.16994400000000	-5.21694200000000	70.66757800000001	-13.50925600000000	0.28862600000000	0.00000000000000	0.11996900000000	-53.89894300000000	800.57355900000005	-51.07934500000000	0.09264500000000	0.00000000000000	-0.07173700000000	0.00000000000000	-7.62812900000000	0.00000000000000	0.00000000000000	-16.40134500000000	0.00000000000000	
14.17160600000000	-5.20075300000000	77.79439400000000	-14.14556500000000	0.29221700000000	0.00000000000000	0.12061700000000	-54.77174600000000	797.65595900000005	-50.70689000000000	0.09179200000000	0.00000000000000	-0.07161100000000	0.00000000000000	-8.09206100000000	0.00000000000000	0.00000000000000	-16.36950400000000	0.00000000000000	
14.17327700000000	-5.07300100000000	84.78773900000000	-14.62253800000000	0.29549200000000	0.00000000000000	0.12122100000000	-55.64961400000000	794.55794800000001	-50.31248600000000	0.09094000000000	0.00000000000000	-0.07148200000000	0.00000000000000	-8.47697600000000	0.00000000000000	0.00000000000000	-16.33797200000000	0.00000000000000	
14.17494000000000	-4.83789400000000	91.64821100000000	-14.94644700000000	0.29849200000000	0.00000000000000	0.12178700000000	-56.53124900000000	791.27631699999995	-49.89608000000000	0.09009000000000	0.00000000000000	-0.07135000000000	0.00000000000000	-8.78511600000000	0.00000000000000	0.00000000000000	-16.30663500000000	0.00000000000000	
14.17661000000000	-4.50235900000000	98.39515900000001	-15.12887300000000	0.30125400000000	0.00000000000000	0.12232100000000	-57.41526300000000	787.80792499999995	-49.45766000000000	0.08924300000000	0.00000000000000	-0.07121500000000	0.00000000000000	-9.02188500000000	0.00000000000000	0.00000000000000	-16.27536500000000	0.00000000000000	
14.17828400000000	-4.07512900000000	105.06214600000000	-15.18503100000000	0.30380600000000	0.00000000000000	0.12282400000000	-58.30017600000000	784.14971700000001	-48.99724800000000	0.08840000000000	0.00000000000000	-0.07107600000000	0.00000000000000	-9.19494600000000	0.00000000000000	0.00000000000000	-16.24401900000000	0.00000000000000	
14.17994000000000	-3.56584100000000	111.69203100000000	-15.13208700000000	0.30617500000000	0.00000000000000	0.12330200000000	-59.18441800000000	780.29873399999997	-48.51490800000000	0.08755900000000	0.00000000000000	-0.07093400000000	0.00000000000000	-9.31327500000000	0.00000000000000	0.00000000000000	-16.21244100000000	0.00000000000000	
14.18160400000000	-2.98423100000000	118.33214099999999	-14.98761500000000	0.30838000000000	0.00000000000000	0.12375600000000	-60.06633200000000	776.25212599999998	-48.01074200000000	0.08672400000000	0.00000000000000	-0.07078800000000	0.00000000000000	-9.38628500000000	0.00000000000000	0.00000000000000	-16.18046100000000	0.00000000000000	
14.18327800000000	-2.33945400000000	125.02991000000000	-14.76828600000000	0.31044000000000	0.00000000000000	0.12418800000000	-60.94417900000000	772.00716599999998	-47.48489400000000	0.08589200000000	0.00000000000000	-0.07063900000000	0.00000000000000	-9.42306000000000	0.00000000000000	0.00000000000000	-16.14789700000000	0.00000000000000	
14.18494500000000	-1.63957900000000	131.82923800000000	-14.48885000000000	0.31236800000000	0.00000000000000	0.12460200000000	-61.81613600000000	767.56126700000004	-46.93754800000000	0.08506600000000	0.00000000000000	-0.07048700000000	0.00000000000000	-9.43174600000000	0.00000000000000	0.00000000000000	-16.11455500000000	0.00000000000000	
14.18660500000000	-0.89126300000000	138.76772500000001	-14.16144600000000	0.31417900000000	0.00000000000000	0.12499800000000	-62.68030700000000	762.91199600000004	-46.36893300000000	0.08424600000000	0.00000000000000	-0.07033100000000	0.00000000000000	-9.41912300000000	0.00000000000000	0.00000000000000	-16.08022900000000	0.00000000000000	
14.18828300000000	-0.09959100000000	145.87485000000001	-13.79522800000000	0.31588200000000	0.00000000000000	0.12537800000000	-63.53472000000000	758.05709300000001	-45.77931900000000	0.08343300000000	0.00000000000000	-0.07017200000000	0.00000000000000	-9.39035800000000	0.00000000000000	0.00000000000000	-16.04470000000000	0.00000000000000	
14.18994500000000	0.73192900000000	153.17104100000000	-13.39628600000000	0.31748700000000	0.00000000000000	0.12574400000000	-64.37733600000000	752.99448600000005	-45.16901800000000	0.08262600000000	0.00000000000000	-0.07001000000000	0.00000000000000	-9.34892100000000	0.00000000000000	0.00000000000000	-16.00774100000000	0.00000000000000	
14.19161100000000	1.60124600000000	160.66757000000001	-12.96780900000000	0.31900100000000	0.00000000000000	0.12609600000000	-65.20605200000000	747.72231199999999	-44.53838900000000	0.08182700000000	0.00000000000000	-0.06984300000000	0.00000000000000	-9.29664300000000	0.00000000000000	0.00000000000000	-15.96911600000000	0.00000000000000	
14.19327700000000	2.50754900000000	168.36710700000000	-12.51043600000000	0.32043200000000	0.00000000000000	0.12643500000000	-66.01870599999999	742.23893099999998	-43.88783100000000	0.08103600000000	0.00000000000000	-0.06967400000000	0.00000000000000	-9.23389900000000	0.00000000000000	0.00000000000000	-15.92857700000000	0.00000000000000	
14.19494400000000	3.45099400000000	176.26478900000001	-12.02273500000000	0.32178500000000	0.00000000000000	0.12676300000000	-66.81308400000000	736.54294700000003	-43.21778800000000	0.08025300000000	0.00000000000000	-0.06950100000000	0.00000000000000	-9.15984900000000	0.00000000000000	0.00000000000000	-15.88587100000000	0.00000000000000	
14.19660900000000	4.43239900000000	184.34961400000000	-11.50175300000000	0.32306400000000	0.00000000000000	0.12708000000000	-67.58692400000000	730.63321900000005	-42.52874700000000	0.07947900000000	0.00000000000000	-0.06932400000000	0.00000000000000	-9.07274600000000	0.00000000000000	0.00000000000000	-15.84073600000000	0.00000000000000	
14.19827400000000	5.45293800000000	192.60600700000001	-10.94357600000000	0.32427400000000	0.00000000000000	0.12738800000000	-68.33792300000000	724.50888499999996	-41.82123800000000	0.07871500000000	0.00000000000000	-0.06914400000000	0.00000000000000	-8.97024600000000	0.00000000000000	0.00000000000000	-15.79290500000000	0.00000000000000	
14.19993700000000	6.51386100000000	201.01540600000001	-10.34386500000000	0.32541900000000	0.00000000000000	0.12768500000000	-69.06374200000000	718.16936899999996	-41.09583200000000	0.07796000000000	0.00000000000000	-0.06896000000000	0.00000000000000	-8.84970700000000	0.00000000000000	0.00000000000000	-15.74210600000000	0.00000000000000	
